<?xml version="1.0" encoding="utf-8"?>
<!-- Generator: Adobe Illustrator 19.2.0, SVG Export Plug-In . SVG Version: 6.00 Build 0)  -->
<svg version="1.1" id="Layer_1" xmlns="http://www.w3.org/2000/svg" xmlns:xlink="http://www.w3.org/1999/xlink" x="0px" y="0px"
	 viewBox="0 0 64 64" style="enable-background:new 0 0 64 64;" xml:space="preserve">
<style type="text/css">
	.st0{fill:#357EEB;}
	.st1{fill:#FFFFFF;}
	.st2{fill:#1B49A0;}
	.st3{fill:none;stroke:#357EEB;stroke-width:2;stroke-miterlimit:10;}
	.st4{fill:none;stroke:#357EEB;stroke-width:2;stroke-linecap:round;stroke-miterlimit:10;}
	.st5{fill:#FFFFFF;stroke:#1B49A0;stroke-width:2;stroke-linecap:round;stroke-linejoin:round;stroke-miterlimit:10;}
	.st6{fill:none;stroke:#1B49A0;stroke-width:2;stroke-linecap:round;stroke-linejoin:round;stroke-miterlimit:10;}
</style>
<g>
	<g>
		<g>
			<path class="st0" d="M14,34v6H8v-6H14 M14,32H8c-1.1,0-2,0.9-2,2v6c0,1.1,0.9,2,2,2h6c1.1,0,2-0.9,2-2v-6C16,32.9,15.1,32,14,32
				L14,32z"/>
		</g>
	</g>
	<g>
		<g>
			<path class="st0" d="M50,34v6h-6v-6H50 M50,32h-6c-1.1,0-2,0.9-2,2v6c0,1.1,0.9,2,2,2h6c1.1,0,2-0.9,2-2v-6
				C52,32.9,51.1,32,50,32L50,32z"/>
		</g>
	</g>
	<g>
		<g>
			<path class="st0" d="M32,34v6h-6v-6H32 M32,32h-6c-1.1,0-2,0.9-2,2v6c0,1.1,0.9,2,2,2h6c1.1,0,2-0.9,2-2v-6
				C34,32.9,33.1,32,32,32L32,32z"/>
		</g>
	</g>
	<g>
		<g>
			<path class="st0" d="M14,48v6H8v-6H14 M14,46H8c-1.1,0-2,0.9-2,2v6c0,1.1,0.9,2,2,2h6c1.1,0,2-0.9,2-2v-6C16,46.9,15.1,46,14,46
				L14,46z"/>
		</g>
	</g>
	<g>
		<g>
			<path class="st0" d="M50,48v6h-6v-6H50 M50,46h-6c-1.1,0-2,0.9-2,2v6c0,1.1,0.9,2,2,2h6c1.1,0,2-0.9,2-2v-6
				C52,46.9,51.1,46,50,46L50,46z"/>
		</g>
	</g>
	<g>
		<g>
			<path class="st0" d="M32,48v6h-6v-6H32 M32,46h-6c-1.1,0-2,0.9-2,2v6c0,1.1,0.9,2,2,2h6c1.1,0,2-0.9,2-2v-6
				C34,46.9,33.1,46,32,46L32,46z"/>
		</g>
	</g>
	<g>
		<path class="st0" d="M56,10v52H2V10H56 M56,8H2c-1.1,0-2,0.9-2,2v52c0,1.1,0.9,2,2,2h54c1.1,0,2-0.9,2-2V10C58,8.9,57.1,8,56,8
			L56,8z"/>
	</g>
	<g>
		<path class="st0" d="M56,22v40H2V22H56 M56,20H2c-1.1,0-2,0.9-2,2v40c0,1.1,0.9,2,2,2h54c1.1,0,2-0.9,2-2V22
			C58,20.9,57.1,20,56,20L56,20z"/>
	</g>
	<g>
		<circle class="st1" cx="8" cy="15" r="1"/>
		<path class="st0" d="M8,13c-1.1,0-2,0.9-2,2s0.9,2,2,2s2-0.9,2-2S9.1,13,8,13L8,13z"/>
	</g>
	<g>
		<circle class="st1" cx="14" cy="15" r="1"/>
		<path class="st0" d="M14,13c-1.1,0-2,0.9-2,2s0.9,2,2,2s2-0.9,2-2S15.1,13,14,13L14,13z"/>
	</g>
	<g>
		<circle class="st1" cx="20" cy="15" r="1"/>
		<path class="st0" d="M20,13c-1.1,0-2,0.9-2,2s0.9,2,2,2s2-0.9,2-2S21.1,13,20,13L20,13z"/>
	</g>
	<g>
		<path class="st1" d="M38,27c-0.6,0-1-0.4-1-1V2c0-0.6,0.4-1,1-1h24c0.6,0,1,0.4,1,1v24c0,0.6-0.4,1-1,1H38z"/>
		<g>
			<path class="st2" d="M62,2v24H38V2H62 M62,0H38c-1.1,0-2,0.9-2,2v24c0,1.1,0.9,2,2,2h24c1.1,0,2-0.9,2-2V2C64,0.9,63.1,0,62,0
				L62,0z"/>
		</g>
	</g>
	<polyline class="st5" points="45.3,14 48.4,17.1 54.7,10.9 	"/>
</g>
</svg>
