<?xml version="1.0" encoding="utf-8"?>
<!-- Generator: Adobe Illustrator 19.2.0, SVG Export Plug-In . SVG Version: 6.00 Build 0)  -->
<svg version="1.1" id="Layer_1" xmlns="http://www.w3.org/2000/svg" xmlns:xlink="http://www.w3.org/1999/xlink" x="0px" y="0px"
	 viewBox="0 0 64 64" style="enable-background:new 0 0 64 64;" xml:space="preserve">
<style type="text/css">
	.st0{fill:#357EEB;}
	.st1{fill:#FFFFFF;}
	.st2{fill:#1B49A0;}
	.st3{fill:none;stroke:#357EEB;stroke-width:2;stroke-miterlimit:10;}
	.st4{fill:none;stroke:#357EEB;stroke-width:2;stroke-linecap:round;stroke-miterlimit:10;}
	.st5{fill:#FFFFFF;stroke:#1B49A0;stroke-width:2;stroke-linecap:round;stroke-linejoin:round;stroke-miterlimit:10;}
	.st6{fill:none;stroke:#1B49A0;stroke-width:2;stroke-linecap:round;stroke-linejoin:round;stroke-miterlimit:10;}
</style>
<g>
	<g>
		<path class="st0" d="M51.2,2L62,12.8V60c0,1.1-0.9,2-2,2H24c-1.1,0-2-0.9-2-2V4c0-1.1,0.9-2,2-2H51.2 M52,0H24c-2.2,0-4,1.8-4,4
			v56c0,2.2,1.8,4,4,4h36c2.2,0,4-1.8,4-4V12L52,0L52,0z"/>
	</g>
	<line class="st5" x1="1" y1="25" x2="15" y2="25"/>
	<line class="st5" x1="27" y1="25" x2="57" y2="25"/>
	<line class="st5" x1="27" y1="32" x2="57" y2="32"/>
	<line class="st5" x1="27" y1="39" x2="57" y2="39"/>
	<line class="st5" x1="3.3" y1="32" x2="15" y2="32"/>
	<line class="st5" x1="8" y1="39" x2="15" y2="39"/>
	<line class="st5" x1="34" y1="52" x2="57" y2="52"/>
	<g>
		<line class="st6" x1="30" y1="48.9" x2="26.9" y2="52"/>
		<line class="st6" x1="30" y1="52" x2="26.9" y2="48.9"/>
	</g>
	<g>
		<path class="st0" d="M52,2.8l9.2,9.2H52L52,2.8 M52,0c-1.1,0-2,0.9-2,2v10c0,1.1,0.9,2,2,2h10c1.1,0,2-0.9,2-2L52,0L52,0z"/>
	</g>
</g>
</svg>
