<?xml version="1.0" encoding="utf-8"?>
<!-- Generator: Adobe Illustrator 19.2.0, SVG Export Plug-In . SVG Version: 6.00 Build 0)  -->
<svg version="1.1" id="Layer_1" xmlns="http://www.w3.org/2000/svg" xmlns:xlink="http://www.w3.org/1999/xlink" x="0px" y="0px"
	 viewBox="0 0 64 64" style="enable-background:new 0 0 64 64;" xml:space="preserve">
<style type="text/css">
	.st0{fill:#357EEB;}
	.st1{fill:#FFFFFF;}
	.st2{fill:#1B49A0;}
	.st3{fill:none;stroke:#357EEB;stroke-width:2;stroke-miterlimit:10;}
	.st4{fill:none;stroke:#357EEB;stroke-width:2;stroke-linecap:round;stroke-miterlimit:10;}
	.st5{fill:#FFFFFF;stroke:#1B49A0;stroke-width:2;stroke-linecap:round;stroke-linejoin:round;stroke-miterlimit:10;}
	.st6{fill:none;stroke:#1B49A0;stroke-width:2;stroke-linecap:round;stroke-linejoin:round;stroke-miterlimit:10;}
</style>
<g>
	<g>
		<path class="st0" d="M40,6c4.4,0,8,3.6,8,8s-3.6,8-8,8s-8-3.6-8-8S35.6,6,40,6 M40,4c-5.5,0-10,4.5-10,10s4.5,10,10,10
			s10-4.5,10-10S45.5,4,40,4L40,4z"/>
	</g>
	<g>
		<path class="st0" d="M46,30c2.2,0,4,1.8,4,4v18c0,2.2-1.8,4-4,4H34c-2.2,0-4-1.8-4-4V34c0-2.2,1.8-4,4-4H46 M46,28H34
			c-3.3,0-6,2.7-6,6v18c0,3.3,2.7,6,6,6h12c3.3,0,6-2.7,6-6V34C52,30.7,49.3,28,46,28L46,28z"/>
	</g>
	<g>
		<path class="st0" d="M12,6c4.4,0,8,3.6,8,8s-3.6,8-8,8s-8-3.6-8-8S7.6,6,12,6 M12,4C6.5,4,2,8.5,2,14s4.5,10,10,10s10-4.5,10-10
			S17.5,4,12,4L12,4z"/>
	</g>
	<g>
		<path class="st0" d="M18,30c2.2,0,4,1.8,4,4v18c0,2.2-1.8,4-4,4H6c-2.2,0-4-1.8-4-4V34c0-2.2,1.8-4,4-4H18 M18,28H6
			c-3.3,0-6,2.7-6,6v18c0,3.3,2.7,6,6,6h12c3.3,0,6-2.7,6-6V34C24,30.7,21.3,28,18,28L18,28z"/>
	</g>
	<g>
		<path class="st1" d="M26,19c-5,0-9-4-9-9s4-9,9-9s9,4,9,9S31,19,26,19z"/>
		<g>
			<path class="st2" d="M26,2c4.4,0,8,3.6,8,8s-3.6,8-8,8s-8-3.6-8-8S21.6,2,26,2 M26,0c-5.5,0-10,4.5-10,10s4.5,10,10,10
				s10-4.5,10-10S31.5,0,26,0L26,0z"/>
		</g>
	</g>
	<g>
		<path class="st1" d="M20,63c-2.8,0-5-2.2-5-5V30c0-2.8,2.2-5,5-5h12c2.8,0,5,2.2,5,5v28c0,2.8-2.2,5-5,5H20z"/>
		<g>
			<path class="st2" d="M32,26c2.2,0,4,1.8,4,4v28c0,2.2-1.8,4-4,4H20c-2.2,0-4-1.8-4-4V30c0-2.2,1.8-4,4-4H32 M32,24H20
				c-3.3,0-6,2.7-6,6v28c0,3.3,2.7,6,6,6h12c3.3,0,6-2.7,6-6V30C38,26.7,35.3,24,32,24L32,24z"/>
		</g>
	</g>
	<g>
		<path class="st1" d="M53,53c-5.5,0-10-4.5-10-10s4.5-10,10-10s10,4.5,10,10S58.5,53,53,53z"/>
		<path class="st2" d="M53,34c5,0,9,4,9,9s-4,9-9,9s-9-4-9-9S48,34,53,34 M53,32c-6.1,0-11,4.9-11,11s4.9,11,11,11s11-4.9,11-11
			S59.1,32,53,32L53,32z"/>
	</g>
	<g>
		<line class="st6" x1="53" y1="40.8" x2="53" y2="45.2"/>
		<line class="st6" x1="55.2" y1="43" x2="50.8" y2="43"/>
	</g>
</g>
</svg>
